<svg xmlns="http://www.w3.org/2000/svg" width="64" height="56"><defs><filter id="a" x=".344" y="0" width="63.031" height="55.125" filterUnits="userSpaceOnUse"><feFlood result="flood" flood-color="#fff"/><feComposite result="composite" operator="in" in2="SourceGraphic"/><feBlend result="blend" in2="SourceGraphic"/></filter></defs><path d="M37.108 10.713H26.6l5.254 9.187zm-11.821.766l-5.254 9.191H30.54zm18.389 9.191l-5.254-9.19-5.254 9.191h10.508zM33.168 22.2l5.254 9.188 5.254-9.188H33.168zm-13.136 0l5.254 9.188L30.54 22.2H20.032zm-6.568 9.952h10.507l-5.253-9.187zm36.779 0l-5.253-9.185-5.252 9.187h10.505zM31.854-.006L26.6 9.184h10.508zm13.136 42.88l5.254-9.188H39.738zm-26.271 0l5.253-9.188H13.465zM6.9 43.641h10.5l-5.253-9.19zm49.914 0l-5.254-9.19-5.26 9.19h10.511zM46.3 45.172l5.254 9.187 5.254-9.187H46.3zm-13.135 0l5.254 9.187 5.254-9.187H33.168zm-21.014 9.187l5.249-9.187H6.9zm-11.82.769h10.5l-5.249-9.189zm26.269 0h10.508l-5.254-9.188zm13.137 0h10.506l-5.253-9.189zm18.388-9.188l-5.252 9.188h10.5z" fill-rule="evenodd" filter="url(#a)"/></svg>